<svg xmlns="http://www.w3.org/2000/svg" xmlns:xlink="http://www.w3.org/1999/xlink" width="500" zoomAndPan="magnify" viewBox="0 0 375 374.999991" height="500" preserveAspectRatio="xMidYMid meet" version="1.0"><path fill="#f3f6fa" d="M 306.25 0 L 68.75 0 C 30.839844 0 0 30.84375 0 68.75 L 0 306.25 C 0 344.15625 30.839844 375 68.75 375 L 183.507812 375 L 183.507812 237.476562 L 156.859375 237.476562 L 156.859375 190.84375 L 183.507812 190.84375 L 183.507812 182.933594 C 183.507812 158.371094 191.003906 131.304688 209.324219 114.652344 C 225.144531 99.664062 247.210938 94.253906 265.53125 94.253906 C 279.6875 94.253906 290.515625 95.917969 299.253906 98.414062 L 296.757812 147.125 C 291.34375 145.460938 284.683594 144.210938 276.355469 144.210938 C 255.539062 144.210938 246.796875 160.449219 246.796875 180.433594 L 246.796875 190.84375 L 287.597656 190.84375 L 287.597656 237.476562 L 247.210938 237.476562 L 247.210938 375 L 306.25 375 C 344.160156 375 375 344.15625 375 306.25 L 375 68.75 C 375 30.84375 344.160156 0 306.25 0 Z M 306.25 0 " fill-opacity="1" fill-rule="nonzero"/></svg>