<svg xmlns="http://www.w3.org/2000/svg" xmlns:xlink="http://www.w3.org/1999/xlink" width="500" zoomAndPan="magnify" viewBox="0 0 375 374.999991" height="500" preserveAspectRatio="xMidYMid meet" version="1.0"><path fill="#f3f6fa" d="M 325.035156 374.875 L 49.71875 374.875 C 22.234375 374.875 0 352.640625 0 325.160156 L 0 49.839844 C 0 22.359375 22.234375 0.125 49.71875 0.125 L 325.28125 0.125 C 352.765625 0.125 375 22.359375 375 49.839844 L 375 325.40625 C 374.75 352.640625 352.515625 374.875 325.035156 374.875 Z M 325.035156 374.875 " fill-opacity="1" fill-rule="nonzero"/><path fill="#1d67c9" d="M 277.316406 92.5625 C 253.832031 69.078125 222.601562 56.085938 189.375 56.085938 C 120.667969 56.085938 64.957031 111.800781 64.957031 180.503906 C 64.957031 202.488281 70.703125 223.976562 81.695312 242.714844 L 63.957031 307.171875 L 129.914062 289.933594 C 148.152344 299.925781 168.636719 305.171875 189.375 305.171875 C 258.078125 305.171875 313.789062 249.207031 313.789062 180.753906 C 313.539062 147.277344 300.800781 116.046875 277.316406 92.5625 Z M 189.125 284.183594 C 170.636719 284.183594 152.398438 279.1875 136.410156 269.695312 L 132.660156 267.445312 L 93.4375 277.691406 L 103.929688 239.464844 L 101.433594 235.46875 C 91.1875 218.980469 85.691406 199.992188 85.691406 180.503906 C 85.691406 123.542969 132.160156 77.074219 189.125 77.074219 C 216.855469 77.074219 242.839844 87.816406 262.324219 107.304688 C 281.8125 126.789062 292.554688 152.773438 292.554688 180.503906 C 292.554688 237.714844 246.085938 284.183594 189.125 284.183594 Z M 245.835938 206.488281 C 242.839844 204.988281 227.347656 197.492188 224.601562 196.246094 C 221.851562 195.246094 219.605469 194.746094 217.605469 197.742188 C 215.605469 200.742188 209.609375 207.984375 207.863281 209.984375 C 206.113281 211.984375 204.113281 212.234375 201.117188 210.734375 C 198.117188 209.234375 187.875 205.988281 176.132812 195.246094 C 166.890625 187 160.644531 176.757812 158.894531 173.757812 C 157.144531 170.761719 158.644531 169.011719 160.144531 167.511719 C 161.640625 166.015625 163.140625 163.765625 164.890625 162.015625 C 166.390625 160.269531 166.890625 159.019531 167.886719 156.769531 C 168.886719 154.773438 168.386719 152.773438 167.636719 151.273438 C 166.890625 149.773438 160.644531 134.285156 158.144531 128.289062 C 155.644531 122.292969 153.148438 123.042969 151.148438 123.042969 C 149.398438 123.042969 147.152344 123.042969 145.152344 123.042969 C 143.15625 123.042969 139.65625 123.792969 136.910156 127.039062 C 134.160156 130.039062 125.917969 137.78125 125.917969 153.023438 C 125.917969 168.261719 137.160156 183.003906 138.65625 185.25 C 140.15625 187.25 160.644531 218.730469 191.871094 232.21875 C 199.367188 235.46875 205.113281 237.21875 209.609375 238.714844 C 217.105469 240.964844 223.851562 240.714844 229.097656 239.964844 C 235.09375 238.964844 247.585938 232.46875 250.082031 225.226562 C 252.582031 217.980469 252.582031 211.734375 251.832031 210.484375 C 251.082031 208.984375 249.082031 208.234375 245.835938 206.488281 Z M 245.835938 206.488281 " fill-opacity="1" fill-rule="evenodd"/></svg>